<svg xmlns="http://www.w3.org/2000/svg" version="1" width="511" height="487" viewBox="-0.3 -1.0 510.5 486.65"><path fill="#717071" d="M368 345l41 14 35 11q28 10 38 20 13 12 20 24 7 11 4 14-2 2-17-2l-25-7-65-1q-63 0-88-2-30-3-6-44 12-21 30-42 2 3 33 15"/><path fill="#717071" d="M371 347l38 13 4 1 35 12q24 9 33 17 11 11 18 22 6 9 6 13v2q-1 1-8-1l-13-3-20-5-20-1h-36l-51-1-46-2q-12 0-15-8l-1-5q0-14 18-41l22-28q6 4 36 15"/><path fill="#595757" d="M340 360q10 6 20 9 13 5 40 12l42 12q47 16 61 34l-19-4-20-5-20-1h-36l-51-1-46-2q-12 0-15-8l-1-5q0-11 11-28 7-13 19-28 5 8 15 15"/><path fill="#717071" d="M355 339l-9-3v-1l4-2h11l17 3q24 6 31 14t9 21q1 10-2 22-3 11-9 19t-13 10l-18 2-21 1-13-2q-6-2-8-6 11-2 19-9 10-8 15-23 5-13-2-29-2-6-6-11l-5-6"/><path fill="#717071" d="M350 334h11l17 3q23 6 30 14t9 20q2 12-2 25-3 9-9 16t-12 8l-19 3h-20l-11-1q-6-1-9-5 11-2 19-8 10-8 15-23 5-17-2-33-5-11-12-15l-7-3 2-1M424 363l4-2q4-1 12 1l16 7 16 8q9 13 3 30l-7 11q-4 5-9 6l-18 1h-15l-8-2-5-4 11-1 8-4q8-6 12-20 2-10 0-17-3-6-7-8l-8-4-5-2"/><path fill="#717071" d="M440 363l16 7 15 8q4 6 5 14t-3 16q-2 6-6 10t-8 5l-18 1-15-1h-1l-5-1-5-2 6-1h4q4 0 9-3 9-7 12-21 2-9-1-18-3-7-7-9l-12-5 5-1 9 1"/><path fill="#595757" d="M371 373q2-3 11-2 8 1 36 10l-1 7-2 8q-3 9-9 16t-12 8l-19 3h-20l-11-1q-6-1-9-5 11-2 19-8 10-8 15-23l2-13M447 391q2-1 15 4l13 6-2 7q-2 6-6 10t-8 5l-18 1-15-1h-1l-5-1-5-2 6-1h4q4 0 9-3 9-7 12-21l1-4M247 405l12 17q-43 11-70 0-9-4-15-9l-5-6 78-2"/><path fill="#595757" d="M234 393l14 12q-4 4-16 6-14 3-29 2-43-1-63-28l94 8"/><path fill="#717071" d="M108 343l-37-5q4-8 13-15 10-7 21-6l3 26"/><path fill="#dcdbd6" d="M50 381q-2-6-1-15 2-11 9-20 9-11 32-9 22 2 38 14 8 6 17 16 11 13 11 18l-4 14q-3 7-9 10-5 3-25 0-17-3-30-8-35-12-38-20"/><path fill="#dcdbd6" d="M59 347q4-5 12-8 8-2 18-1 22 2 39 14l16 16q11 12 10 17 0 7-3 13-3 7-8 10t-25 0q-17-3-29-8-35-12-38-19-2-6-1-15 2-10 9-19"/><path fill="#b4b4b0" d="M60 389q-6-3-9-8-1-1 3-2l10-3q18-3 34-1 3 1 5-11l4-23q12 4 21 11l16 16q11 12 10 17 0 7-3 13-3 7-8 10t-25 0q-17-3-29-8-22-7-29-11M135 429l5 5q4 4 3 5l-5 2-5 1 2-13"/><path fill="#717071" d="M128 394l8 8 3 5-2 9-3 9-44-6-1-37q23 0 39 12"/><path fill="#595757" d="M89 382h9l3 18 1 17-6 1-6 1-1-37"/><path fill="#595757" d="M91 382q10-3 29 8 8 4 13 9 6 5 6 8l-2 9-3 9h-4q-3-10-16-23-10-11-23-20"/><path fill="#717071" d="M130 422q6 3 7 11v6l-1 3q-8 4-28 7-22 2-34-1-12-2-17-8-4-5-3-12 2-6 7-10l8-3q5-1 29 2 26 2 32 5"/><path fill="#717071" d="M135 441q-7 4-28 6-21 3-33 0-13-3-17-9-3-4-1-10 1-6 5-9l8-3 27 1q24 2 33 6 4 2 6 6l1 7v4l-1 1"/><path fill="#595757" d="M129 423q4 2 6 6l1 7v4l-1 1-12 4-18 3q-1-11-5-18-4-8-16-14 3-1 21 2 18 2 24 5"/><path fill="#717071" d="M78 375q11 4 11 8l2 16q2 16 4 18l-4 2q-4 2-7 1H73q-7-1-9-3-4-5-7-16-3-13-1-20 0-3 10-5 9-3 12-1"/><path fill="#717071" d="M78 376l8 4 2 3 3 25 2 8-2 2-4 1H76q-9-1-11-3-4-4-7-15-3-13-1-20l2-2 11-3h8"/><path fill="#595757" d="M77 376h1l8 4 2 3 3 25 2 8-2 2-4 1q-6-17-10-43"/><path fill="#dcdbd6" d="M62 439q1 3-8 4l-12-1q-1-2 6-9 6-7 9-8 4-2 5 14"/><path fill="#dcdbd6" d="M57 426h1q3 1 4 13l-1 1-8 2H42q1-3 7-9 5-6 8-7"/><path fill="#b4b4b0" d="M43 442l8-7q5-5 9-6l2 10-1 1-8 2H43"/><path fill="#dcdbd6" d="M71 429q4-1 7 6l4 14-13 3H52l9-14q5-7 10-9"/><path fill="#dcdbd6" d="M72 430h2l5 8 2 10q-3 2-12 3l-15 1q3-8 8-14t10-8M99 433q3-1 6 5 3 5 3 11l-11 3-15 1 8-13q3-4 9-7"/><path fill="#dcdbd6" d="M99 434h3l4 6 2 8q-3 2-11 3-7 2-14 1 3-7 7-11 4-5 9-7"/><path fill="#b4b4b0" d="M66 442q6-6 11-8l3 7 1 7q-3 2-11 3l-14 1 10-10M103 435l3 6 2 7-9 3-12 1 7-9 9-8"/><path fill="#dcdbd6" d="M31 269l-2 15-15-1q5-8 9-11l8-3M20 295q3-6 6-8l8 15H18q-2-1 2-7M37 312h-5v-3l3-6 10 7-8 2"/><path fill="#b4b4b0" d="M15 282q7-5 15-6l-1 8-15-1 1-1M34 302H18l6-3 7-3 3 6M38 312h-5l7-6 5 4q-3 2-7 2"/><path fill="#717071" d="M26 278q1-8 5-12l9-6q8-3 12-2l12 20q11 21 8 25t-10 6l-10 2q-13 1-22-13-6-9-4-20"/><path fill="#717071" d="M31 267l10-6q7-3 11-2l13 23q7 13 7 18l-1 2q-3 4-9 6l-10 2-9-1q-7-3-12-12-6-8-4-19 1-8 4-11"/><path fill="#595757" d="M50 295q8-5 15-12 7 13 7 17l-1 2q-3 4-9 6l-10 2-7-1q-7-2-12-8 8-1 17-6"/><path fill="#717071" d="M60 297q-5 0-8-2-8-4-6-15l2-3q-4-9 2-15 3-4 14-10l24 40-8 4-7 4q-4 1-9-1l-4-2"/><path fill="#595757" d="M60 297l-4-1-7-3 13-8 15-12 11 19-8 4-7 4q-4 1-9-1l-4-2"/><path fill="#dcdbd6" d="M100 255q12 16 12 19l-2 8q-3 4-11 7-9 4-16 1t-14-12q-5-6-6-16t3-14l9-7q6-3 12-2l13 16"/><path fill="#dcdbd6" d="M84 289q-7-2-15-12-5-6-5-16-1-9 3-12 11-11 19-9l16 20q9 11 9 14v1q-1 5-3 7-2 3-10 6-7 4-14 1"/><path fill="#b4b4b0" d="M87 272l-5-5q-4-6-5-15t2-11q4-2 7-1l16 20q9 11 9 14v1q-1 5-3 7-2 3-10 6-5 3-8 3-7 0-16-6 3 0 9-5 7-4 6-6l-2-2"/><path fill="#717071" d="M85 243l5-6 27 27-1 1-1 3q-4 4-13 3t-15-9q-4-6-4-12l2-7"/><path fill="#595757" d="M117 264l-1 1-1 3q-4 4-13 3-6-1-11-5l-4-4 6-5 7-10 17 17"/><path fill="#717071" d="M82 190q-1-3 3-8l6-8q2-2 11 5l12 12q3-2 7-2l12-1-4 39q-5 39-8 38l-9-1q-8-3-17-13-8-10-6-25l2-10 2-4-11-22"/><path fill="#717071" d="M82 189q0-3 4-7l6-7q3 0 13 9l10 9 2 1v-1l-2-2q5-2 17-2l-5 47q-4 26-6 28h-2q-5 0-9-2-7-3-14-11-6-8-6-20l1-12 2-5 1 3 1 1v-2l-6-13q-6-11-6-14h-1"/><path fill="#595757" d="M105 189q-6-7-14-13l1-1q3 0 13 9l10 9 2 1v-1l-2-2q5-2 17-2l-5 47q-4 26-6 28h-2q-5 0-9-2-7-3-14-11-5-6-6-15 2-8 12-18l6-8q3-4 3-8 1-4-6-13"/><path fill="#0d131a" d="M334 330l1-1 1 1 16 7 4 3 4 3q-21-8-25-11l-22 28q-18 27-18 41l1 5q3 8 15 8l25 2-5 2-20-1q-13-1-17-10-5-14 16-46 11-16 24-31M428 417l-2 1-1 1-19 1h-7l3-3h26M476 387l-2-7q17 10 28 28l7 13q1 6-1 8-3 2-20-1l-23-6 3-3 16 4q20 6 21 3v-1q0-7-7-18-8-11-22-20M434 365l4 4-22-7-1-3 19 6"/><path fill="#0d131a" d="M361 331l17 3q24 6 31 14 8 9 11 22 2 13-2 26-3 10-10 18-7 7-13 9l-22 3h-25l-10-2q-7-2-9-7l4-1q12-3 21-11t12-21q4-17-2-31-4-9-10-13l-6-2-6-3 8-4h11m-13 4l7 3q7 4 12 15 7 16 2 33-5 15-15 23-8 6-19 8 3 4 9 5l11 1h20l19-3q6-1 12-8t9-16q4-13 2-25t-9-20q-7-8-30-14l-17-3h-11l-2 1"/><path fill="#0d131a" d="M440 360l16 6q14 6 16 9 6 7 7 16t-3 17q-2 7-8 12-5 5-9 6l-18 1-16-1-7-1q-4-2-6-6l-1-2h13l8-4q8-6 11-20 2-8 0-15l-6-9-9-3-6-3v-1l7-2h11m-9 4q4 1 7 4 4 2 7 9 3 9 1 18-3 14-12 21-5 3-9 3h-4l-6 1 5 2 5 1h1l15 1 18-1q4-1 8-5t6-10q4-8 3-16t-5-14l-15-8-16-7-9-1-5 1 5 1M259 421v3q-24 5-44 4-15 0-26-5-8-3-14-8l-6-7q-10-4-18-10l2-2q17 13 43 16 17 1 34-2 13-2 17-5l2 1q-5 4-18 7-17 4-35 2-12-1-23-5 6 6 16 10 12 5 26 6 20 1 44-5M73 338l-3-1q4-9 12-15 10-7 23-6v2q-11-1-21 7-8 6-11 13"/><path fill="#0d131a" d="M59 347q-7 9-9 19-1 9 1 15l4 4v1l-1 1q-4-2-5-5-3-6-1-16 1-11 9-21 9-12 33-10 23 3 39 15 7 5 16 16 12 13 12 19-1 8-4 14-3 8-8 11l-6 1v-2l4-1q5-3 8-10 3-6 3-13 1-5-10-17l-16-16q-17-12-39-14-10-1-18 1-8 3-12 8M136 428l5 5 4 7-4 1-5 2 1-1 1-2 4-1-2-3-4-5v-3"/><path fill="#0d131a" d="M89 383v-3q23 1 39 12l9 9 3 6q1 3-2 10l-4 8h-1l3-9 2-9-3-4q-3-5-8-8-15-12-38-12"/><path fill="#0d131a" d="M84 374h9q9 1 17 4 26 7 32 23v2l-2-2q-5-13-27-20-15-6-28-6l-3-1h2M85 448l-1 3-4-1 2-2h3M64 418q-5 2-7 7l-2 1-1 1q2-8 9-11l1 2M139 436l-1 5-2 2-11 4-17 3v-3l16-2 11-4 1-1v-4l-1-7q-2-4-6-6-9-4-34-6l-1-2 22 3q11 1 15 3t6 7l2 8"/><path fill="#0d131a" d="M79 374q11 4 11 9l2 17 2 13 1 4-1 1q-2 2-7 3H75q-9-1-11-4-5-5-8-15-3-12-2-21l4-4 11-3q7-2 10 0m-22 7q-2 7 1 20 3 11 7 15 2 2 11 3h11l4-1 2-2-2-8-3-25-2-3-8-4h-8l-11 3-2 2"/><path fill="#0d131a" d="M78 380v-3l1 1 3 16q2 16 5 22v2l-2-2q-3-5-5-20l-2-16M57 424h3l2 3 1 8-2 1q-1-9-3-10h-1q-3 1-8 7-6 6-7 9h8l7-1-1 3H43q-3-1-2-3l7-11q5-5 9-6"/><path fill="#0d131a" d="M79 438l-5-8h-2q-5 2-10 8t-8 14l15-1q9-1 12-3l-2-10m3 11l-2 2-12 2-15 1-2-1v-2q3-7 9-14t11-9h4q3 2 5 9l2 12M106 440l-4-6h-3q-5 2-9 7-4 4-7 11 7 1 14-1 8-1 11-3l-2-8m-18 0q5-6 10-8h4q3 2 5 7l2 10-1 1q-3 2-11 3-8 2-13 1h-2l-1-2 7-12M27 269v2q-5 2-8 6-3 3-3 6l9 1v1H15l-2-1 1-2q1-5 5-8l8-5M20 292l6-5-1 2-5 7-2 5h14l1 2H17q-2 0-1-2 1-5 4-9M45 310l1 1-6 2-7 1-2-1-1-1 3-8 1-1 1 1-1 2-1 3-1 2h5l8-1"/><path fill="#0d131a" d="M24 278q2-9 6-13l10-6q8-3 13-2v1l-1 2v-1q-4-1-11 2l-10 6q-3 3-4 11-2 11 4 19 5 9 12 12l9 1 10-2q6-2 9-6h1l2-1-1 3-8 5-12 4q-15 2-25-14-5-9-4-21M87 238v1l1 1-1 2-1-2q-8-2-19 9-4 3-3 12 0 10 5 16 8 10 15 12 7 3 14-1l8-4 1 2-3 2-5 3q-8 4-16 1t-16-13q-5-6-5-17-1-10 3-14l10-8q6-3 12-2"/><path fill="#0d131a" d="M84 244l4-6 1 2-4 5-1 5q0 5 4 11 6 8 14 9t11-2q2-1 2-3l1-1h2l-1 2-2 4-7 2h-8q-9-1-14-9-4-7-4-13l2-6"/><path fill="#0d131a" d="M80 189q0-3 4-9l6-7h3q3 0 11 7l10 10 9-3 11-1v2l-5 45q-4 31-7 33h-3l-10-1q-7-3-15-12-3-4-5-11l-2-11 2-12 2-7-11-22v-1m12-14l-6 7q-4 4-4 7h1q0 3 6 14l6 13v2l-1-1-1-3-2 5-1 12q0 12 6 20 7 8 14 11 4 2 9 2h2q2-2 6-28l5-47q-12 0-17 2l2 2v1l-2-1-10-9q-10-9-13-9"/><path fill="#0d131a" d="M103 188l1-1 3 3 3 3v2l-1-1-3-3-3-3M85 292l3 1q-11 8-15 8l-1 1-9-2-4-2v-1h-5l-5-3q-3-3-4-7v-7l1-3q-3-6 0-12 2-4 8-8l8-5 1-1v2l-12 9q-6 6-3 13l7-6 7-4 1-1v2l-10 6q-5 5-6 9v5l3 6 4 3h7l10-5 6-4 1 2q-10 7-16 9 6 4 11 2l12-7"/><path fill="#717071" d="M179 143l15 18 34 38q51 59 68 87 18 31 1 64-7 13-19 23-10 10-21 15-16 8-45 10-30 1-55-6-18-5-33-19-13-13-19-30-6-16-4-30 1-11 6-18l1-33-3-4v-6q4-28 8-38 3-7 7-7 4-11 4-16 0-7-6-14l30-18q30-17 31-16"/><path fill="#595757" d="M178 270l5-3 5-2 6-2 20 62q1 1-7 6l-9 5-4-7-7-18q-9-28-9-41M107 276l1-9 1-5 8 6q6 3 13 4l-1 8h-4l-18-4"/><path fill="#595757" d="M178 145l5 4q88 98 112 138 9 15 9 31 0 9-3 18-5 17-19 32-12 13-26 19-10 5-28 8-18 2-37 1 22-4 38-39 5-10 8-23l3-11-4-2-5-4q-8-13-27-33l-18-17 6-4q1-1-18-44l-8-5-9-8q-12-10-33-20l-4-8 35-22q20-11 23-11"/><path fill="#dcdbd6" d="M117 71l-17 2-26-45 2-1 41 44"/><path fill="#b4b4b0" d="M117 71l-17 2q4-8-4-24l21 22M137 120l-15 12-3-3-2-3q-1-1-4 1l-3 2-3-7-9 3-4-9 8-5 35 9"/><path fill="#ed8599" d="M130 125l14-5 15 9-41 35-17-6q1-13 13-24 9-7 16-9"/><path fill="#ce7486" d="M144 120l15 9-17 15q-4-7-11-10t-14-2l7-5 6-2 14-5"/><path fill="#fff" d="M203 136l13 11 15 14 4 9 1 7-15 23-36-25q-4-3-6-11l-1-10-5-8-11 13q-6 8-12 12-13 0-31 8l-19 9q-10-5-15-13l-3-9q-1-2 1-4l4-2 1-7 2-6 7 8 4-2-1 6 2-1 4-2 4-11 3-4 2 4 4 7q16-4 26-12 5-4 6-7l-12-10-6 1-5 2-4-7-8 3-4-6-8 4-1-2-2-5-11 7-11 7q-1-8 3-21l4-12q21-19 71 9 25 15 46 33"/><path fill="#dcdbd6" d="M172 146l-10 13-12 12q-11 1-26 6l-19 9-5 2q-6-3-13-11-6-8-6-12l3-3 3-3 1-7 2-4 3 3 4 4 2-1h1v4h2l3-1 2-1 3-10q3-5 4-4l2 5 3 4 2 1 2-1q19-7 31-19l7-11v-1l-5 7-5 6-6-5-6-5-5 1-5 3-3-4-2-4-4 1-4 2-2-3-2-3-4 2-4 1-1-2-1-3-1-1-3 1q-8 3-14 8l-5 3 2-15q3-11 6-15 20-19 70 9 25 14 46 32l16 14 12 11 3 8 2 7-15 24-17-12-19-13q-4-3-5-11l-2-10 1-1-2-1-3-5-1-2-1 1"/><path fill="#b4b4b0" d="M100 155v3q-15 7-15 5l1-2 2-1 1-7 1-4 3 4 4 3h1l2-1M203 136l8 7q-6-4-17-7-13-3-11 1 1 4 9 11 9 9 17 13l10 6 11 8-4 1-3 1-13-7q-6-3-8-2-2 2-2 8t3 11l-11-7-7-5q-4-3-5-11l-2-10-4-8h-2l-9 12-11 11q5-11 6-21 2-11-1-19l6-9-2-1-1 3q-2 3-2 1-11-15-29-20-20-7-46 0l4-8q20-19 70 9 25 14 46 32"/><path fill="#57c2e9" d="M122 95q7-1 18 3t9 6l-6 3q-4 2-11 1-6-1-9-7l-1-4v-2"/><path fill="#4ba9cb" d="M121 95q7-1 16 3 9 3 11 6l-1 1-4 2-10-5-10-2-1-3-1-2"/><path fill="#fff" d="M206 119q4 15 1 20l-20-10-23-9-7-5-12-14q-13-7-37-7H93l-7 1-2 3-1 1-33-20-38-24-6-4q-2-2 6 0l50 12 43 11q28-11 53-4 21 5 33 19 11 13 15 30"/><path fill="#dcdbd6" d="M208 139l-23-10-21-9-4-3-4-4-4-5-7-8h-1q-13-7-36-7l-15 1-7 1-2 2-1 2-72-44-2-3 2-2 48 12 45 12h4l-1-1q27-10 51-4 21 5 33 20 9 10 14 24 4 12 4 20l-1 4v2"/><path fill="#b4b4b0" d="M105 93q-17-1-20 2l-2 3-36-23-34-21-3-2h3l2 1 60 21 63 23q-13-4-33-4M206 119l2 14v6l-23-11-22-9-4-2-4-4-2-4-4-5q18 10 32 12 22 5 18-15 5 8 7 18"/><path fill="#fff" d="M130 98v2l-1 1v-1l-1-1 1-1v-1l1 1M163 93q-6 2-15-2L115 3l52 87-4 3"/><path fill="#dcdbd6" d="M149 90l-30-77 23 37 24 39-6 3q-6 1-11-2"/><path fill="#b4b4b0" d="M161 92q-6 1-11-1 3-6 1-16l-4-17 19 31q-1 2-5 3"/><path fill="#0d131a" d="M224 196l1-2q54 62 72 92 14 24 7 51-6 17-20 33-12 14-26 20-17 8-46 10-31 2-55-5-31-9-46-34-13-20-13-42 0-9 3-15 1-5 5-10-1-10 1-32l-3-3v-5-2q4-27 8-37 3-9 7-9l3-8 1-7-1-6-4-6 2-1q5 7 5 13l-1 8-3 9v1h-1q-3-1-6 7-4 10-8 36l1 6q0 2 2 3v1l-1 19q0 13 2 23l-3-8q-6 9-6 22 1 23 15 43 15 23 41 30 25 7 55 5 28-1 44-9 14-6 26-19 14-15 19-32 3-9 3-18 0-16-9-31-18-29-71-91"/><path fill="#0d131a" d="M119 208h1q2 4 9 7 13 5 39-3l20-6 12-6 1 1q-4 3-13 6l-20 7q-28 8-40 3-7-3-9-9"/><path fill="#0d131a" d="M118 219l-3-4v-4h1l1 3 3 3q8 5 22 6 23 0 57-16l1 1q-33 17-58 17-16 0-24-6M110 324q-8-8-8-17l1-3q0 8 9 17 9 10 23 15 31 11 66 3 40-9 67-40l2 1q-31 34-71 42-34 8-65-4-15-5-24-14"/><path fill="#0d131a" d="M185 268l-6 2q1 11 8 35 6 23 11 30l4-4 2-2v-1l-9-22q-8-20-10-38m-46 7l-8-1-1 23q0 25 2 33l8 3 16 4q23 3 40-1-4-8-11-31t-7-34q-21 7-39 4m-32 20l1-3q0 9 5 17 6 9 15 15v-29l1-22q-9-2-15-6l-7-5-1-3q-1-2 1 0 2 3 9 7 9 4 22 6 15 2 32-2 23-5 46-20l1 1q-15 10-30 16 2 18 9 38l9 22q20-6 38-19 0-5-7-25-7-21-12-26l2-1q5 6 12 27 7 19 7 26l9 4q-1-8-8-28-8-20-12-25h2q5 7 12 25t8 27l-1 1-1 2-10-5q-19 13-38 19l-3 4-5 4-7 2-16 1q-25 1-44-8l-1-1-1-2-1-3q-10-6-16-14-5-8-5-17M189 181l2-1 1 1-2 1-14 7-19 8q-10 3-20 2-9-1-13-5l1-1q3 4 13 4 11 0 21-3l30-13M119 69l-3 2-20-21-20-21 12 22 13 22-3-1-24-43q-2-3-1-4t4 2l42 42M103 122l5-1 1 3 2 3 3-1h4q2 1 2 4l-1 1-2-4-3 1-3 1-1 1-1-1-2-6-7 3h-2l-1-1-4-9 2-1 2 5 2 3 4-1"/><path fill="#0d131a" d="M128 124v1 1q-8 4-16 11-10 10-11 21l-1 1q0-13 10-24 8-7 18-11"/><path fill="#0d131a" d="M172 146l1-2 1 2 5 7v1l1 10q2 7 6 10l35 25 13-23v-6l-3-8-29-25-1-1 5 1q23 19 28 25l2 9 1 6-15 25-1-1-19-13-18-12q-4-4-6-11l-1-11-4-6-10 13-10 10-2 2h-3q-10-1-26 7-14 5-19 9l-2 1h-2q-4-2-9-8-8-8-10-15v-2l1-3 4-3h1l1-10 2-3q1-1 2 1l6 7 6-3-2 6 4-2 3-9 3-4 2-2 2 2q0 3 5 9 10-3 20-10 8-5 10-8l-11-9-4 1-5 3-2 1v-1l-3-4-2-4-7 4-2-3-2-3-7 3h-2l-1-1-1-3-1-2-6 3-11 6-4 3q-2-1-2-4 1-13 6-25l2-1 2-2q-3 5-5 17-3 11-1 11l4-3 14-7 2-1 1 2 3 4 3-1 4-1 2 2 2 3 4-2q3-2 4-1l2 3 3 4q8-4 10-3l7 5 5 4q1 1 5-5l5-7 2 1-9 12q-11 13-30 20l-4 1h-2l-2-4-3-5-2 4-4 8v1l-5 1h-2v-3l-2 1h-1l-4-3-3-4-1 4-1 7-3 2-3 3q0 4 6 11 6 8 12 11l4-2 20-9q14-6 26-6l12-12 10-12"/><path fill="#0d131a" d="M168 121l1 1q1 16 6 25 4 6 9 7 14 4 27 11 14 6 17 12l-1 1q-4-5-17-11-13-7-27-10-7-2-11-10-4-9-4-26M88 162l6-2 7-3 6-1q2 0-3 2l-9 4-7 2-2-1 2-1M132 97l-1 4-2 2-1-2-1-5 2-1 3 2"/><path fill="#fff" d="M130 98v1l-1 1v-1l-1-1 1-1v-1l1 1v1"/><path fill="#0d131a" d="M120 95h2q0 3 4 7 3 5 7 6h8l6-4 2 1q-3 4-7 5h-9q-6-1-9-6-4-5-4-9"/><path fill="#0d131a" d="M177 75q9 5 16 14 12 14 16 31 3 14 0 21l-2-1-21-10-22-9-5-2-4-5q-5-7-11-12-13-7-36-7H93l-7 1q-2 1-3 5L49 80 12 56l-9-5-3-4h5l8 2 47 12 45 12q18-7 32-8l1 2q-15 1-30 7l1 1h-4L60 64 12 52h-2l3 2 34 21 36 23 2-3 8-2h16q23 0 36 7h1l11 13 4 4 3 2 21 8 22 10q2-10-2-21-4-13-15-26-14-17-35-21l-2-3q13 2 24 9"/><path fill="#0d131a" d="M113 87q7 2 6 3l-6-1-62-22-40-14q-3-1-2-2h3l40 14 61 22M179 94l3 5q2 4 1 7t-3 3q-2 1-4-1l-4-5v-6q0-3 2-4t5 1M112 94q-4 9-12 7l-5-3v-4h17M164 82l5 3 2 4q-1 3-6 4-4 2-10 1l-10-3q-4-3-3-6 0-2 3-3l2 4 1 5 2 1 6 1q8 1 12-3l-4-8"/><path fill="#0d131a" d="M163 93q-6 2-15-1l-2-2-15-41-17-44V0l2 2 52 87v2l-5 2m-3-1l6-3-24-39-23-37 30 77q5 3 11 2"/><path fill="#717071" d="M331 324q14 13 15 35 2 30-6 51-7 18-20 27-13 8-27 7-15-2-27-11-20-16-23-45-2-17 3-41 3-19 19-30 15-9 34-7t32 14"/><path fill="#717071" d="M345 359q1 30-6 50-8 21-24 29-11 6-24 4-13-1-24-10-20-16-23-46-2-15 3-38 3-20 19-30 14-8 31-7 19 1 32 13 15 13 16 35"/><path fill="#595757" d="M279 377q3 2 4 6l-1 10-2-3-4-3q-5-1-15 7-10 9-11 16-4-8-5-18 11-11 17-14 10-6 17-1"/><path fill="#595757" d="M329 324q15 13 16 35 1 30-6 50-8 21-24 29-8 4-17 5 16-36 8-70-8-36-42-56l17-5q9-2 16-1 19 1 32 13"/><path fill="#dcdbd6" d="M353 393q-1 5-5 8-3 3-6 3l-1-5q-1-5-5-10-11-12-37-13-25-1-41 12-6 5-9 11l-2 8-8-4q-4-4-6-9-2-7 0-23 1-16 4-21 5-7 20-15 19-9 40-9 20-1 34 6 15 7 19 18 4 10 5 24 1 12-2 19"/><path fill="#dcdbd6" d="M325 381q-10-5-25-6-17-1-31 5-9 4-15 10-4 4-6 9l-2 6q-4-1-7-4l-5-7-1-11 2-19q1-10 3-13 5-7 20-15 18-9 39-9 19 0 33 6 15 7 19 18l4 14 1 14q0 9-2 14-1 4-4 6-2 3-5 4l-1-6q-1-4-4-7-5-6-13-9"/><path fill="#b4b4b0" d="M349 351l4 14 1 14q0 9-2 14-1 4-4 6-2 3-5 4l-1-6q-1-4-4-7-5-6-13-9-10-5-25-6-17-1-31 5-9 4-15 10-4 4-6 9l-2 6-5-2q-3-1-4-5 0-3 3-7 4-6 11-11 19-14 48-15 2 0 1-14t-5-24h2q19 0 33 6 15 7 19 18"/><path fill="#717071" d="M300 420h13l16 3q7 2 12 17 5 14 3 20-2 5-16 8-9 2-27 2-14 1-28-2-15-4-19-10-4-5-2-15 3-9 7-15 4-4 20-7 13-2 21-1"/><path fill="#717071" d="M315 422q8 0 13 2 4 1 8 8t6 16q2 9 1 12-2 5-18 7l-24 2q-14 1-28-3-14-3-18-8t-1-15q2-9 6-14 3-4 19-6l21-2h3l12 1"/><path fill="#595757" d="M259 446q8 1 13 8l5 7 6 8q-11-1-18-4l-10-7-2-6 3-4 3-2M302 443q-4-14-17-21l9-1h9l12 1q8 0 13 2 4 1 8 8t6 16q2 9 1 12-3 7-38 9 0-18-3-26"/><path fill="#717071" d="M300 367q16 1 20 4 2 3 1 27t-6 26q-6 3-19 2-12-1-14-3l-2-8-3-17q-3-23 2-28 5-4 21-3"/><path fill="#717071" d="M320 390q0 17-2 27l-3 6q-6 3-19 2-11-1-13-3l-2-8-3-16q-3-23 2-27 4-4 20-3t19 4l1 18"/><path fill="#dcdbd6" d="M266 453l2 8-1 5h-12q-11 0-18-2l10-13q7-8 10-9 6-1 9 11"/><path fill="#dcdbd6" d="M256 465l-18-1 10-13 9-8q3 0 6 4l3 9 1 7v2h-11M304 447q5-2 12 9l4 7 1 5-7 9-7 7-8-7-8-8q-1-1 4-11 6-10 9-11"/><path fill="#dcdbd6" d="M311 450l6 10 3 8-6 8-7 7-8-7-7-8 4-10q5-9 9-10 2-1 6 2M355 461q3 8 2 12l-13-2-13-4q-1-1 4-12t7-10q9 5 13 16"/><path fill="#dcdbd6" d="M342 446q7 5 12 15l2 7v4q-1 1-12-2l-12-3 4-12q4-9 6-9"/><path fill="#b4b4b0" d="M263 447l3 9 1 7v2h-10l-15-1q12-15 20-19l1 2M311 450l6 10 3 8-4 6-7 7 1-16-2-17 3 2M356 472h-2q-4-15-13-26h1q7 5 12 15l2 7v4"/><path fill="#0d131a" d="M331 424q7-10 10-23l2 3q-3 13-11 22l-1-2M343 340l-4-4q-7-11-18-18-11-6-24-7-15-1-28 6-15 8-20 24l-4 1q5-18 21-27 14-9 31-7 15 1 27 9 13 9 19 23M260 428q-9-9-14-20l1-5q5 14 15 24l-2 1"/><path fill="#0d131a" d="M352 350q4 10 5 24t-2 21q-2 5-6 8l-7 3-1-2-1-4-4-8q-5-7-15-11v-2q11 4 17 11 3 3 4 7l1 6q3-1 5-4 3-2 4-6 2-5 2-14l-1-14-4-14q-4-11-19-18-14-6-33-6-21 0-39 9-15 8-20 15-2 3-3 13l-2 19 1 11 5 7q3 3 7 4l2-6q2-5 6-9 9-9 22-13v3q-12 4-20 12l-7 9-1 6-1 1q-5-1-9-4-5-3-7-8-2-7 0-25 1-17 4-21 6-8 21-16 19-9 41-10 20 0 35 7t20 19"/><path fill="#0d131a" d="M340 376l9 9 2 6v3l-1-2-3-6-8-8q-15-11-39-12-27-1-46 12l-12 10-4 8h-1v-3q5-10 19-19 19-11 44-10t40 12M318 422v-2q6 0 11 2 5 1 9 9l7 15-4-1-5-13q-4-7-8-8l-10-2M278 470l-14-4 5-1q10 3 21 4l2 3-14-2M260 429l-4 7-3 9-2 1-2 1 4-11 6-9q4-5 23-7l1 2-14 3q-7 2-9 4M320 471l1-3 11-2 2 2-7 2-7 1"/><path fill="#0d131a" d="M320 370q5 5 3 29l-3 17q-2 8-4 9-7 3-20 2-12-1-15-3l-3-10-3-17q-3-23 3-28 6-4 23-3 16 1 19 4m-20-2q-16-1-20 3-5 4-2 27l3 16 2 8q2 2 13 3 13 1 19-2l3-6q2-10 2-27l-1-18q-3-3-19-4M262 443q3 2 5 7l2 10q1 6-1 7l-12 1q-10 0-19-2l-1-1v-2q2-5 10-13t11-9q3 0 5 2m1 4q-3-4-6-4l-8 7-10 12v2l17 1h11v-2l-1-7-3-9M311 448q4 4 8 12 4 7 3 9 0 3-6 8l-6 7-2 1h-3l-7-7-8-8v-3l6-12q5-8 8-9h3l4 2m9 20l-3-8-6-10q-4-3-6-2-4 1-9 10l-4 10 7 8 8 7 7-7 6-8M342 444q10 6 14 16 4 7 4 13l-1 2-4-1-12-2-12-4q-2-2 2-11t7-12q1-2 2-1m12 17q-5-10-12-15-2 0-6 9l-4 12 12 3q11 3 12 2v-4l-2-7"/><path fill="#717071" d="M228 176l16-13q16-14 24-18 4-2 10 2l10 7q1 1-7 20-7 19-6 20l5 12q5 17-3 32-9 16-25 21-17 4-32-5t-20-26q-5-18 3-33t25-19"/><path fill="#717071" d="M228 177l17-14q18-14 24-17 2-1 10 3l8 5-2 8-5 12-5 13-1 6v1l5 12 2 12q0 11-6 21-4 7-10 12-6 4-14 6-7 3-15 2t-15-5q-7-5-12-11-5-7-8-16-2-9-1-17 1-9 5-16t10-11q6-4 13-6"/><path fill="#595757" d="M256 194l4-2h4q3-1 3-3l8-16 10-21 1 1 1 1-2 8-5 12-5 13-1 6v1l5 12 2 12q0 11-6 21-4 7-10 12-6 4-14 6-7 3-15 2t-15-5l-11-9-7-13q13 14 26 15 11 1 20-6 8-8 11-20 2-12-3-23-2-3-1-4"/><path fill="#717071" d="M245 224q9-14 24-12 3 0 8 4l6 6-30 37-5-6-6-9q-2-3-1-8l4-12"/><path fill="#595757" d="M269 212q3 0 8 4l6 6-10 13-5-12-8-10 4-2 5 1"/><path fill="#dcdbd6" d="M317 238q5 11 0 20-5 8-18 16-13 7-24 7-12-1-17-8-10-13-5-26 3-13 17-20 12-7 26-4 14 4 21 15"/><path fill="#dcdbd6" d="M316 239l2 10q0 13-20 24-12 7-23 7-11-1-16-8-4-5-6-11v-12q1-6 6-12 4-6 11-9 12-7 26-4 13 4 20 15"/><path fill="#b4b4b0" d="M300 226q10 4 16 13l2 10q0 13-20 24l-5 2-3-39q-3-12-11-12 11-2 21 2"/><path fill="#717071" d="M270 293l-2-8-3-15q-1-7 4-12l6-4 9 18-14 21"/><path fill="#595757" d="M332 268l-21-4-9-20q5-2 9-1 6 2 11 8l8 12 2 5"/><path fill="#717071" d="M281 273l-3-8-3-13 2-4 5-5q9-5 17-1 3 1 7 8l4 12-29 11"/><path fill="#595757" d="M289 241q5-1 10 1 3 1 7 8l4 12-9 3q-1-9-12-24"/><path fill="#b4b4b0" d="M350 298q4 4 8 12t4 13l-10-2-7-3 5-20"/><path fill="#717071" d="M339 323q-11 9-28 9t-29-10q-13-9-13-24t12-26q12-11 29-11t29 12q12 11 12 26 0 14-12 24"/><path fill="#717071" d="M339 322q-11 9-28 9t-29-10q-12-9-12-23t12-25q12-11 28-11t28 11q11 11 11 26 0 14-10 23"/><path fill="#595757" d="M349 299q0 14-10 23-11 9-28 9l-10-1q6-2 11-8 4-6 5-16 4-21-9-44h2q16 0 28 11 11 11 11 26"/><path fill="#dcdbd6" d="M291 306q1 3-5 11l-11 13q-5-8-3-21 1-11 3-14 2-2 8 3 7 5 8 8"/><path fill="#dcdbd6" d="M277 296l7 4 6 7q0 4-15 21-3-6-3-14l2-12 2-6h1"/><path fill="#b4b4b0" d="M290 307q0 4-12 18 2-14 7-24l5 6"/><path fill="#dcdbd6" d="M326 300q4 7 4 12t-6 16l-8 10-4-12-5-14q-1-2 4-8l7-8q3-3 8 4"/><path fill="#dcdbd6" d="M324 326l-7 10-7-20-2-4 4-7 7-8 2-1 5 7q3 5 3 9v1q0 4-5 13"/><path fill="#b4b4b0" d="M329 313q0 4-5 13l-7 10-1-2 1-18v-17l2-2 2-1 5 7q3 5 3 9v1"/><path fill="#0d131a" d="M229 177q-8 2-14 6t-10 11q-4 7-5 16-1 8 1 17 3 9 8 16 5 6 12 11 7 4 15 5t15-1v2q-8 2-16 1t-15-5q-8-5-14-11-6-7-8-16-2-6-2-15 1-14 7-23 5-7 10-10 6-4 13-6l18-14q18-14 24-17 3-2 13 3l9 7-7 20-6 19 2 6 3 7 1 13v3l-3-2 1-2-2-12-5-12v-1l1-6 5-13 5-12 2-8-8-5q-8-4-10-3-6 3-23 17l-17 14"/><path fill="#0d131a" d="M268 186l8-17 7-16h1v1l-14 33-2 2v-3M244 224q4-7 11-11 6-3 14-2 5 0 11 6l6 5-3 1-6-5q-6-5-8-5-7-1-13 2t-10 10q-4 5-4 11-1 5 1 8l9 13v4q-9-12-11-17-2-3-1-9 0-6 4-11"/><path fill="#0d131a" d="M318 247l-2-8q-7-11-20-15-14-3-26 4-7 3-11 9-5 6-6 12v12q2 6 6 11 2 4 7 6l1 4q-7-2-10-7-5-6-6-13-2-7 0-13 1-7 6-14 5-6 12-10 13-7 28-3t21 16q4 6 3 12l-3-3"/><path fill="#0d131a" d="M335 268h-3l-3-4-8-12q-4-6-9-8h-8l5 9 3 8-3-1q-6-16-10-18-5-2-11 0l-7 3-4 4-1 3 3 12 3 8-3 3-5-20q-3 1-5 4-4 5-3 11 0 7 3 14l1 6-1 5-2-8-3-16 1-8 3-5 3-3 3-1v-2l2-4 4-5 8-3q6-1 12 1l3 2h9q6 1 11 8l12 17M357 310l-7-10 1-4q4 4 8 12t5 15q0 3-3 2l-10-3-7-3 1-2 8 3 8 2-4-12"/><path fill="#0d131a" d="M353 299q0 13-9 22-9 10-23 12v-2l1-2q13-2 20-11 7-8 7-19 0-15-11-26-12-11-28-11t-28 11q-12 11-12 25 0 5 2 9l-2 3q-2-6-2-13 0-15 12-26 13-11 30-11t30 12q13 12 13 27M311 331h1l1 4h-1q-9 0-17-4-8-3-14-8l1-2q6 5 13 7 8 3 16 3"/><path fill="#0d131a" d="M277 293q3 0 9 6l6 8q1 2-6 12l-11 12h-1l-2-2q-4-9-2-22 2-10 4-13l3-1m-1 3l-2 6-2 12q0 8 3 14 15-17 15-21l-6-7-7-4h-1M327 327l-8 11-3 2-2-1-2-9-4-13-2-5q0-3 5-10l7-8h4q3 1 6 8 3 6 3 10 0 6-4 15m-1-24l-5-7-2 1-7 8-4 7 2 4 7 20 7-10q5-9 5-13v-1q0-4-3-9"/></svg>