<svg xmlns="http://www.w3.org/2000/svg" version="1" width="353" height="360" viewBox="-0.05 0.0 353.45 359.9"><path fill="#696838" d="M283 97l3 13-1 18-3 12-6 7-6 7-108-1-9-22 48-32q47-31 49-31l15 5q9 5 13 10 3 3 5 14"/><path fill="#dbd2a9" d="M307 305l9 2q8 2 10 6l-7 1h-7l-5-9"/><path fill="#696838" d="M149 285l-2-2-1-2 30-23 32 8 12 10-28 11q-5 2-21 1-15-1-22-3"/><path fill="#dbd2a9" d="M106 299l11 2q8 2 7 4l-10 6-9 4 1-16"/><path fill="#fff3c2" d="M222 297l-2 15-9-5-2-2q-2-1 3-4l10-4"/><path fill="#d3965c" d="M104 292l2 8 3 7q0 3-3 8l-7 5-17 7-19 11q-5 4-22-3l-12-7q-6-4-7-7-1-6 1-11 3-5 16-14l-2-6-2-9q-3-12-1-20 3-8 11-21 10-15 17-19l42 35 9 22-6 5q-4 4-3 9"/><path fill="#ad7b49" d="M104 256l9 22-6 5q-4 4-3 9l1 5 3 5q2 4 0 10-3 6-9 8l-17 7-19 11-6 2q-4 0-3-4 0-4 4-7l4-5q2-3-7-8-11-6-13-9l11-3q13-2 17-5 13-7 5-32-5-19-20-40l7-6 42 35"/><path fill="#d3965c" d="M285 233l3 6 5 11q12 18 10 33-1 8-4 12l4 5 8 12q2 4-3 10-4 6-12 12l-14 9q-8 3-10 0-4-5-21-14-14-8-23-11-7-3-9-7v-9l6-8q4-4 4-6-3-6-9-11l-10-6 28-31 47-7"/><path fill="#ad7b49" d="M285 233l3 6 5 11q12 18 10 33-1 8-4 12l4 5 8 12q2 5-5 13t-17 14q7-9-2-18-6-6-21-14l-2-1q-1-1 1-6 2-8-1-16-3-7-10-13-6-6-15-9t-18-3l17-19 47-7"/><path fill="#fff3c2" d="M26 321l-4 3q-13 2-15 1l6-6q7-6 9-6t3 3l1 5"/><path fill="#dbd2a9" d="M19 324l6-6 1 3-4 3h-3"/><path fill="#fff3c2" d="M33 331q-14 5-19 5-3 1 4-7t10-8q3-1 4 4l1 6"/><path fill="#dbd2a9" d="M32 326l1 5-11 4 10-9"/><path fill="#fff3c2" d="M44 328l2 6q0 2-9 6-10 4-11 3l4-8q5-8 10-10 1-1 4 3"/><path fill="#dbd2a9" d="M46 334q0 2-5 4l-9 4 5-7 6-7 3 6"/><path fill="#fff3c2" d="M60 339l-10 6-11 4 4-9q5-8 10-11 1-1 4 4l3 6"/><path fill="#dbd2a9" d="M60 339l-7 4-12 6 7-9 9-8 2 4 1 3"/><path fill="#fff3c2" d="M304 326q-2 0 0-5 2-6 5-6 3-1 11 6 9 6 5 6h-11l-10-1"/><path fill="#dbd2a9" d="M309 315q2-1 9 4 8 5 8 7-9-8-19-10l2-1"/><path fill="#fff3c2" d="M290 336l3-7q2-5 5-5t10 8l6 9q-1 2-13-1-11-2-11-4"/><path fill="#dbd2a9" d="M314 342q-3-5-9-10l-10-6q1-2 3-2 3 0 10 8l6 9v1"/><path fill="#fff3c2" d="M276 332q5-3 9 6l3 12 1 7q-1 1-9-6l-7-7v-7l3-5"/><path fill="#dbd2a9" d="M289 357h-1q-3-15-10-25 4-1 7 6l3 12 1 7"/><path fill="#d3965c" d="M69 124q3 7-6 25l-9 16-10-5q-7-4-9-9 7-10 15-18 16-17 19-9"/><path fill="#ad7b49" d="M69 124q2 6-2 17l-9 18q-9-7-22-6l-1-2q7-10 15-18 16-17 19-9"/><path fill="#d3965c" d="M62 91l5 19-2 10q-1 7-5 12-9 15-23 18-9 2-19-3-7-4-11-11-3-5-4-31-1-27 2-36l52 7 5 15"/><path fill="#ad7b49" d="M17 87l-5-5-8-7 1-6 52 7 5 15 5 19q0 6-3 16-5 10-12 16-3-8-16-27L17 87"/><path fill="#d3965c" d="M81 46q3 5 1 12-1 7-5 11-3 3-10 4h-7q-2 4-13 7-13 4-20 1-17-7-23-14-3-2-2-10l2-16q1-13 11-21 11-9 22-4 4-4 9-4 6-1 10 3l7 7q3 4 3 8-1 8-8 16l11-2q9-2 12 2"/><path fill="#ad7b49" d="M51 31q-2-3 0-4 2-2 6-2h7q3 1 3 3l-3 10-6 8 11-2q9-2 12 2 3 5 1 12-1 7-5 11-3 3-10 4h-7q-2 4-13 7-13 4-20 1-8-3-13-7 4-1 3-7l-3-8q-2-3 0-14l2-13q1-2 5-1l6 2 10-3q7-2 14 1"/><path fill="#fff3c2" d="M51 32q2-2 8-2 6-1 7 2t-3 8q-2 5-6 8l-4-7-3-4 1-5"/><path fill="#dbd2a9" d="M66 32q1 2-2 8l-6 7-5-16 7-1q5 0 6 2"/><path fill="#fff3c2" d="M43 32q3-1 3 1 7 9 5 18l-3 6-1 2-7-6-12-9q-1-7 8-11l7-1"/><path fill="#dbd2a9" d="M46 33q5 7 5 14l-2 10-3-14q-3-8-8-11h5l3 1"/><path fill="#fff3c2" d="M61 43V33q2-1 10 5t7 8q-4 13-10 13l-4-2-2-3-1-11"/><path fill="#dbd2a9" d="M61 33q2-1 10 5t7 8q-2 8-6 11-2 2-5 1l-1-11q-2-8-5-13v-1"/><path fill="#696838" d="M316 195q-2 6-8 13-6 9-9 11l-13 5-12-38 30-41 10 10 2 17q2 19 0 23"/><path fill="#85834a" d="M143 48l-20 31-39 4-1-5v-8l4-6q5-6 12-10l20-10 12-5 7 4 5 5"/><path fill="#696838" d="M134 41l9 7-20 31-39 4-1-9q5 4 11 4 24 2 40-37"/><path fill="#85834a" d="M81 84q4-2 10 0l24 50-52 13-5-16 2-10 4-12 8-14 9-11"/><path fill="#696838" d="M63 147l-5-16 7 2q5 1 10-1t15-11q9-7 11-11 1-2-3-11l17 35-52 13"/><path fill="#85834a" d="M68 198l29-5 10 54-10 12h-7q-3-1-13-10l-12-11-3-16-1-16q0-2 4-5l3-3"/><path fill="#696838" d="M68 198l29-5 6 31 1 1-1 2 4 20-10 12h-7q1-3-1-14l-3-13-9-12q-8-11-16-15l4-5 3-2"/><path fill="#85834a" d="M228 48l-45 29-43-25q0-2 5-8l5-6 21-5q21-5 23-4l15 5 15 7 4 7"/><path fill="#696838" d="M208 49q14-7 15-9l5 8-45 29-23-14 11-1 12-3q11-3 25-10"/><path fill="#85834a" d="M271 88q0 5-3 14-2 7-4 8l-18 5-55-2-11-33 6-8q8-9 14-12 6-5 20-10l15-5 14 6q12 6 14 9 3 3 5 14l3 14"/><path fill="#696838" d="M271 88q0 5-3 14-2 7-4 8l-18 5-55-2-11-33 5-7 12-11v6q3 23 5 24 3 2 17 5 17 3 26 3 6 0 15-5l11-7"/><path fill="#85834a" d="M68 142l10-7 10-1h7l29 5-36 57-7 4-18-3-7-7q-5-6-5-8l2-16q2-14 4-16l11-8"/><path fill="#696838" d="M62 196l11-7q6-4 7-7 2-2 5-22t1-21l-4-3-4-1 10-1h7l29 5-36 57-7 4-9-1q-9-1-10-3"/><path fill="#85834a" d="M96 242l1-7 4-6 6-4 67-2 4 40-4 5-6 6q-2 3-41 11l-13-5-14-8q-2-1-3-9l-1-12v-9"/><path fill="#696838" d="M157 245q-2-2-19-4l-20-2-10 3q-8 4-12 8l1-10 1-7q0-2 3-5l5-3 68-2 4 40-3 3-5 6 2-7-1-5-6-9-8-6"/><path fill="#85834a" d="M287 228q-4 12-6 14l-18 7q-17 6-21 5l-7-3-2-1 17-42 38-4 3 5q2 3 1 6l-5 13"/><path fill="#696838" d="M292 215l-11 3q-9 3-13 7l-13 14-11 15-8-3-3-1 17-42 38-4 3 5q2 3 1 6"/><path fill="#85834a" d="M264 144l15-3q15-2 16 0 3 1 12 11v10l-1 14q0 5-4 14-3 10-7 12l-11 7q-8 6-12 6l-10-2-6-3q-2-1-5-7l-3-7-2-39q-1-1 9-7l9-6"/><path fill="#696838" d="M264 144l15-3q15-2 16 0l12 10-16 4-13 5-8 14q-7 14-6 15l3 10q3 11 6 16h-1l-10-2-6-3q-2-1-5-7l-3-7-2-39q-1-1 9-7l9-6"/><path fill="#85834a" d="M247 194l9 16 1 7 2 7-3 7-7 11q-3 4-19 16l-17 12h-11l-12-1-8-4-5-5-5-34 1-5 5-10q8-14 14-15l55-2"/><path fill="#696838" d="M192 196l55-2 9 16 3 15-8-9-4-4-17 1-20 4-11 8q-12 9-13 14l1 14q1 10 4 17l-8-5-6-5-3-16q-3-16-2-19l7-14q7-14 13-15"/><path fill="#85834a" d="M219 109q19 2 22 4l7 4q5 2 6 4 3 3 9 18 7 17 6 22 0 5-8 18l-8 13q-1 2-7 5l-9 4-20 1-20-1q-2 0-9-19l-10-25q-3-6-2-14l1-9 19-26q4-1 23 1"/><path fill="#696838" d="M219 109q19 2 22 4l7 4q5 2 6 4l7 13-8-8-7-6-8-1-13-1-12 1-10 11q-9 10-9 13-1 3 6 26 6 23 8 24l21-1 20-3 15-15-7 11-4 7q-1 2-7 5l-9 4-20 1-20-1q-2 0-9-19l-10-25q-3-6-2-14l1-9 19-26q4-1 23 1"/><path fill="#85834a" d="M166 140q7 2 9 4t10 26l9 27q1 4-4 10l-6 8-8 6-10 8-17 2h-20l-18-4q-12-3-13-5l-5-10-4-11v-11l1-11 9-19 8-17 3-2 4-2q8-3 23-2l18 1 11 2"/><path fill="#696838" d="M173 180l-9-20q-3-3-18-5-18-3-36 1l-1-4-2-5q-1-7 9-8l32-2q22 1 28 9l9 24 9 25q2 5-4 13l-6 7-4 3 1-12 1-7-9-19"/><path fill="#d3965c" d="M172 64q4 1 15 18l11 19q0 5-5 15-3 9-7 14-2 3-18 7-14 5-20 5l-13-2-15-2q-10-1-17 1l-5-1q-5-4-7-8-1-3 1-6l6-6 5-5q0-3-5-7l-8-7q-3-2-3-7v-8l5-8 7-8q2-2 36-4 33-2 37 0"/><path fill="#ad7b49" d="M172 64q4 1 15 18l11 19q0 5-5 15-3 9-7 14-2 3-18 7-14 5-20 5l-7-1-8-1q3-2 4-6 1-3-1-5l4-2 3-4 8-11q4-9 3-13-4-6-13-9l-12-4-13-1h-10l-4-8q-4-8-3-9 2-2 36-4 33-2 37 0M87 93v-8q0 5 4 7l15 15q10 11 10 19l-13-2q-7 0-10 4l-1 2v2q-2-4 0-8l6-6 5-5q0-3-5-7l-8-7q-3-2-3-6"/><path fill="#922f00" d="M93 99l-2-3 1-5 19-1q16 0 18 2l3 2q-13 4-22 13-9 10-7 22l-8-1q-2-2-1-4l6-5 5-5q1-2-1-5-2-4-7-7l-4-3"/><path fill="#ed8599" d="M133 94l6 3 5 2h13q11 0 15 3l-12 11-12 11q-3 3-7 4h-26l-12 1q-2-12 8-22 8-9 22-13"/><path fill="#ce7486" d="M133 94l6 3 5 2h13q11 0 15 3l-15 14q-20-15-42-13 7-6 18-9"/><path fill="#fff" d="M94 126v-5l1-4 3 5 4 7h-3q-4-1-5-3"/><path fill="#dbdcdc" d="M102 129l-4-1-1-5-1-5 6 11"/><path fill="#fff" d="M137 128v-5l2-5 3 3q4 4 3 5l-3 2h-5"/><path fill="#dbdcdc" d="M145 126l-1 1-3 1v-4l-1-5 4 4q2 2 1 3"/><path fill="#fff" d="M163 81q-6 1-17-2l-13-5 4-3 16-3 15-2-2 7-3 8"/><path fill="#dbdcdc" d="M168 66l-2 8-18-2q-8 1-10 4l-5-2 4-3 16-3 15-2"/><path fill="#b50029" d="M139 76l-1-2 1-4q0-2 8-4 7-2 8 2l-1 9-4 3-11-4"/><path fill="#8f001a" d="M155 68l-1 7q-4-3-9-3-4 1-7 4v-3l1-3q0-2 8-4 7-2 8 2"/><path fill="#d3965c" d="M172 66l-19 2-18 4-5 5q-4 5-6 5l-15 1H94q-2 0-3-2l-1-3 2-4 3-5q-1-3 2-7t10-7q7-3 21-4h18l14 5 11 4 4 4q1 2-3 2"/><path fill="#ad7b49" d="M171 60l4 4q1 2-3 2l-19 2-18 4-5 5q-4 5-6 5l-15 1H94l-2-1-1-1q-2-2-1-4l1 1q1 2 3 2h13l13-2 7-6 7-5 15-4q12-4 12-7l10 4"/><path fill="#d3965c" d="M333 69q6 21-1 43-3 10-12 25-3 6-14 10l-20 4q-7 1-12-3l-9-10q-5-7-5-12l3-12 7-14 8-10q2-2 4-9l2-8 49-4"/><path fill="#ad7b49" d="M333 69q6 21-1 43-3 10-12 25-3 6-14 10l-20 4-8-1-5-3q5 1 11-16 5-16 8-37-2-10-9-17l1-4 49-4"/><path fill="#d3965c" d="M325 12l7 8q2-1 8 2 7 4 10 8v8l-4 10-5 11q-4 7-9 11-6 4-23 6l-19 1q-2 0-9-7l-10-9q-2-2-2-7l-1-5-2-4q-3-5-2-10l2-7q2-5 6-9 7-9 21-7 5-8 12-10t12 1l8 9"/><path fill="#ad7b49" d="M350 30v8l-4 10-5 11q-4 7-9 11-6 4-23 6l-19 1-2-2-3-3q-4-6 0-11l-2-12-2-12q1-9 9-13l6-1 4-1q3 0 5-4l2-6q1-3 6-4t11 2l8 10q2-1 8 2 7 4 10 8"/><path fill="#0d131a" d="M145 73v3l-1 1-1-1v-3-2l1-1 1 1v2M328 313v1l-5 1-11 1v-2l13-1q0-2-7-5-6-3-11-3v-2l10 3q9 3 11 7M149 286l-3-3-2-2 3-1 1 2 2 2q6 2 21 3 16 1 21-1l26-11 1 1-24 13q-5 2-23 0-17-1-23-3"/><path fill="#0d131a" d="M155 283h-4l3-1 15-5 16-3h9l15 1h3l-3 1h-24l-15 3-15 4M123 305l-6-3-10-2-1-2 10 2q9 2 10 4 0 2-6 6l-15 6 1-1v-1l11-5 6-4M222 298l-9 3-4 3v1l6 3 4 3 1 2-6-3-7-4v-2q0-2 6-5l11-4-2 3M45 235q9-10 17-15l1 2q-7 3-17 18-8 13-11 21v14l3 12 2 7 1 7q0 2-1 0l-1-3q-14 9-16 16l-2-1q0-4 4-8 5-6 13-9l-6-19q-2-10 0-15 4-14 13-27"/><path fill="#0d131a" d="M102 291q0-5 3-9l5-5 4 2-7 5q-3 3-2 8l3 9q3 5 1 11-2 7-9 9l-18 8-20 12h-3v-2l3-1q5-5 20-12l17-7q4-1 7-6t0-11l-4-11M209 270h3l10 6q5 5 8 12l2 6-3-3-1 2-2 1-3 4-3 4v9q2 3 8 6l22 10q17 9 22 15l1 3-2-1q-4-5-21-14l-22-11q-6-2-8-5-3-2-3-6l1-6 3-5 4-4q3-3 3-5l-9-11-9-6q-4-1-1-1M292 338h-1l-4 3-1-2 4-2 2 1M287 241l-2-5 1-3 4 7 6 11q6 8 8 15l1 12q0 9-5 17l6 6q5 5 7 11v4l-1-1h-1l-1-2-6-11-5-5-3 2q-2 0 0-1 4-6 5-14 3-16-8-34l-6-9M22 312l1 1 3 3 1 5-1 1-2-4-2-4q-1-1-7 5l-6 6h5l9-2-1 2-11 2-4-1q-1-1 2-4l7-6 6-4"/><path fill="#0d131a" d="M19 328q-6 7-5 8l7-2 10-3 1-1v-2q-1-7-4-7l-9 7m26 7v-1l-2-5-2-3h-1q-4 2-9 9l-4 7q1 1 8-2l10-5m-4-11l4 5 2 5-1 2-6 4-11 4h-4q-1-1 1-4l5-8q-5 3-15 5h-3v-3l8-10 7-4q4-1 6 9l5-5h2"/><path fill="#0d131a" d="M54 330h-1q-4 2-9 10-5 7-4 8l9-4 10-5-2-4q-1-4-3-5m1-2q2 1 4 6l2 6-9 5-10 4h-4l1-3 5-10q4-6 8-8h3M293 330q-3 5-2 6 2 2 12 4l10 1-6-9q-7-7-9-7-3 0-5 5m26-10l-10-5-4 4-1 6 11 2h11q0-2-7-7m8 5l2 3-2 1-12-1h-10l2 1 7 10 1 3-3 1-10-1-11-3-1-2-1-2q1-6 4-9 2-3 4-3l5 2 2-6q2-5 4-5l9 3 10 8M278 332l-4 5q-2 4-1 7l8 7 7 6q1-1-1-8l-3-11-3-4q-1-2-3-2m-7 11l2-8q1-4 4-5l4 1q4 2 6 7l3 14v8l-4-2-9-7q-6-6-6-8M34 152l2-1q2 4 9 8l9 5-1 1q-4 0-10-4-7-4-9-9M58 76l5 12q3 10 3 17l-1 2-5-18-4-12 2-1"/><path fill="#0d131a" d="M4 69h2q-3 9-2 36 1 26 4 31 4 6 11 10 9 5 18 3 7-1 12-6 5-4 9-10l1 1v3q-4 5-10 9-6 5-12 6-10 2-19-3-8-4-13-11-3-5-4-32t3-37"/><path fill="#0d131a" d="M17 77l1 1v16q-2 21 0 31 3 17 15 25l-2 1q-12-9-15-26V94l1-17M17 33l1-2v2l2 7q2 6 5 6h5l3 1q-1 2-8 1-4 0-6-5-3-5-2-10M50 39l1-2 7 9 2-3 1 2-1 2-1 1-2 1-1-1-6-9M51 31l4-2h7q4 0 5 3v3l-2-1v-1q-1-2-3-2h-6l-4 2-1-2"/><path fill="#0d131a" d="M82 46q3 5 2 12t-5 11q-3 3-10 4l-9 1q-3 4-14 8-12 3-20 0Q9 74 2 68q-2-3-2-9l1-13 1-6q1-7 5-13t10-10q4-3 11-4l8 1q5-4 10-4 6-1 10 3l4 5 5 6 2 4v3l-1 2-2-2q2-3 0-7l-7-6-2-2q-3-4-8-3-4 0-8 3 4 2 8 7 5 6 5 9 1 5-1 9l-2-2 1-1v-5q0-3-5-9l-8-7q-1-2-7-1-6 0-11 3-6 3-10 9T5 41l-1 5-1 13q0 6 2 8 6 6 23 13 6 3 17 0 9-3 13-7l-3-1q-1-1 2-1h9q7 0 10-3 4-4 5-10 1-7-1-11l-2-2-1-2q4 1 5 3"/><path fill="#0d131a" d="M50 47q0-7-4-14l-3-1-6 1-4 3q-4 3-4 6l1 2 10 9 7 5 1-2 2-5v-4m-7-16h3l2 3q5 8 4 16-1 7-4 9h-2l-6-5-12-9q-2-1-1-3 1-7 10-10l6-1M77 46q0-2-7-8-7-5-8-4l-1 5 1 12 2 5q1 2 3 2 3 0 7-5l3-7M60 33q2-2 8 2l7 5q5 5 4 7-3 8-7 11-5 3-9 0-2-2-2-6-3-18-1-19M57 47l1 1-1 4v7l-1-2q-2-2-1-5l2-5M305 147l2-1 2 2 4 3 3 8 3 18v19l-9 14-9 10-11 4-1-1 1-1 8-4q4-2 10-10l7-14 1-6-1-17-2-16-8-8"/><path fill="#0d131a" d="M307 160q0-3 2-4l3-2h1v1l-4 6-2 4v-5M295 208l2-8 2-2-1 8v8l1 3 1 1q0 1 0 0l-4-2-1-8M268 75q3 0 7 3 5 3 6 6l-2 3q-1-5-5-7-3-3-5-2l-1-3M131 38q3 0 7 3l5 5-1 2q-9-8-11-8l-12 5-20 10q-6 4-11 10l-4 6v5l1 7h-2l-1-5-1-8 5-6q6-7 12-11 8-6 20-11l13-4"/><path fill="#0d131a" d="M84 73l-1-2 1 1 1 3 6 1-1 2q-5 0-6-3v-2M132 41l1-1 1 1-1 5-2 5-2-1 2-4q2-4 1-5M87 81h2l-1 3h-2l-5 1-6 8-8 13-2 4-4 11-2 10 4 15-2 2-5-17 2-11 4-12 2-4 10-14 7-7 6-2"/><path fill="#0d131a" d="M75 133l-7 1-6-1-2-1h8l7-1q3-1 13-10l12-11q1-3 1-1l-1 3q-6 8-15 15l-10 6M90 258h6v2l-3 1h-3q-3-1-14-11l-12-11q-2-2-3-18l-2-16q0-2 4-4l4-3h2l-5 5-2 3 2 16 3 16 11 11 12 9"/><path fill="#0d131a" d="M85 231q3 5 5 14l1 14-1 1v-2l-2-12q-1-9-4-15l-11-14-9-10-1-1h2l9 10q8 9 11 15M209 32l15 7 5 8-2 1-4-7-13-6-16-5-17 3-27 6-5 7-3 5h-2l6-10 5-5 21-5q20-5 22-4l15 5"/><path fill="#0d131a" d="M220 42h2l-2 2-17 8-20 8-4 1h-6l-1-1 9-1 21-8 18-9M150 38v6l-1 8-1-1-1-1 1-6 1-5 1-1q1-1 0 0M265 59q3 4 5 16l2 13q0 5-3 14-2 7-4 8l-8 4-9 2-3-1 12-4 7-2 4-8 2-13-2-14-5-13q-3-4-15-9l-13-6-15 5-20 9q-6 4-11 11l-5 6-1-2 4-6q5-6 11-10l19-9q12-6 16-6 5-1 16 5 12 6 16 10"/><path fill="#0d131a" d="M244 99q8-1 16-5 6-3 10-8h1v2q-9 10-26 13l-23-3q-17-3-21-5l-1-2-2-6-2-13V62l1-1 1 1q-1 2 1 15t4 14q3 2 19 5 17 4 22 3M79 136l-10 7-11 8q-2 2-5 27l-1 4 5 7 7 7 8 2 9 1 8-4v3l-8 3-9-1-10-2-7-7q-6-6-6-9l1-3q3-27 6-30l12-8 11-7 8-1h6l1 1-8 1-7 1"/><path fill="#0d131a" d="M74 190l-8 4-2 1 1-2 7-4q6-4 8-8l4-22 2-19-4-3-2-1h2l3 1h1l2 1v2l-2 19q-3 19-5 23t-7 8M81 185l4 3 4 2v2l-8-6-1-2 1 1M95 239l2-7 3-4 4-3q1-1 3 1l-4 3-4 4-1 7-1 9 1 11q1 10 3 11l14 8 12 5 20-5 19-5 3-3 3-3 4-4 2-3 2 2-5 6-7 6q-1 2-19 7l-22 5q-3 0-15-6l-12-7q-3-2-5-13v-12-10"/><path fill="#0d131a" d="M139 240q17 2 19 4l8 8 7 8v5l-3 6-2 2 1-1 1-5 1-6-5-7-9-9-16-3-21-2q-3-1-11 2l-8 5-3 3-2 3q0 2 0 0v-3l2-3 3-3 8-3 10-3 20 2M290 205q4 6 3 10l-4 13q-4 14-7 16-2 2-19 7t-21 3l-5-1 2-2 3 2q4 1 20-4t18-8q2-1 6-12l5-15v-4l-3-4 2-1"/><path fill="#0d131a" d="M292 213l1 1-1 1q-4 0-9 3l-14 8q-3 1-10 10l-11 12-2 2 1-2 10-13 11-11q14-9 24-11M265 146v-3l3-1 2 2h-4l7 8 6 7v1h-1l-13-14M309 152v8l-2 16q0 5-4 14-4 10-7 13l-5 3-10 7-9 3-8-2-7-2-1-4v1q2 2 7 3l9 2 9-3 9-7 5-3q3-2 7-11 3-9 3-14 2-22 1-24l-4-3 3-1 4 4"/><path fill="#0d131a" d="M279 161l-3 5q-12 18-11 22l4 14 4 12v1l-1-1-5-12-4-13q-1-3 3-10l8-14 3-4q2-4 14-7l15-3h2l-1 1q-26 6-28 9"/><path fill="#0d131a" d="M262 187q2 0 1 1v1h-8v-1l1-1h6M248 197l1-1 8 15 3 14-3 7-7 11-19 16-18 12h-10l-13-1-7-3-5-4q-2-1-4-16l-3-21 1-2h1l2 19 4 18 4 3 8 4 11 1h11l17-12 18-16 7-10 3-7-1-7-2-7-7-13"/><path fill="#0d131a" d="M250 212l2 4 3 4 3 4 1 1h-1l-7-8-2-3-2-1-19 2-18 3-13 10q-10 8-11 11l1 13 3 13v3l-2-4-3-13v-12q1-4 13-14l12-9q3-2 37-5l3 1"/><path fill="#0d131a" d="M247 204l2 8q0 3-1 1l-1-5-2-5-2-5h2l2 6M176 146v-1l-1-2v-6l1-3h2l-1 5-1 7M101 141l1-2 1 1 3 5-1 3-2-3-2-4M86 138l5-1 6 1v1l-5-1-4 1h-2v-1"/><path fill="#0d131a" d="M229 119q-13-1-17 2-3 2-10 12l-8 10 7 26 7 23q1 1 19-1l20-3q4-1 13-12 8-11 9-15l-3-11-6-16-1-1q-7-8-13-11-5-3-17-3m-17 0q4-2 17-2t18 3l7 6 4 4-5-9-9-6-4-1q-2-2-21-4t-21-1q-3 1-2-1l2-1q3-1 22 1l21 4 4 2 6 3 4 3 9 19q7 17 6 22 0 4-5 13l-8 13-6 8-7 4-7 3-20 1h-21l-1-2-4 7q-2 4-5 6l-9 8-10 7q-4 2-19 3h-19l-16-4-15-5q-2-1-6-10t-4-13v-11l1-10 9-19 8-17q3-4 13-6l3 1h2q-13 2-16 6l-9 17q-8 16-8 19l-1 10v10l4 12q4 10 6 11l14 3 15 3 17 1 19-2 18-14 6-7q5-7 4-9l-9-26-10-27-4-3-7-2 3-1q7 2 10 5l11 29 11 27 19 1 20-1 7-3 7-4 1-2 3-5 6-9-8 9-6 5-19 2-21 1q-2-1-9-25-6-24-5-26l7-12 12-12"/><path fill="#0d131a" d="M119 155l-8 1-8 16-10 23-2 3 1-4q2-8 9-23t9-16q3-3 26-1 24 1 28 5l19 39v7l-2 9-1 3v-4l1-8v-7q-15-33-19-38l-8-3-18-2h-17M188 85q-9-14-14-19l2-1 15 20 9 15q0 6-6 18l-8 14q-2 3-18 7-13 4-20 4h-7l-6-2-15-2h-11l-7 2h-3l-2-1q-5-4-6-9-2-4 0-7l3-4v3l-2 2q-1 2 1 6 1 3 5 6l2 1h3q7-2 17-1l8 1 8 1 6 2h5q7 0 21-5 15-4 17-7l8-14q4-10 4-14l-9-16"/><path fill="#0d131a" d="M173 101q4 4-1 2l-5 4-7 8-12 10q-3 3-7 4h-30l-10 1q-5 0-6-2-2-1-2-3l1-2 1 2v1l1 1 4 1h8l20-1h13l6-3 13-12 6-6 5-4-9-2h-18l-8-4-7-3q-4-2-17-1l-18 1h-2v1q0 2 2 3l4 4q4 3 6 7l2 5-1 2-2 2-5 4-1-1 5-4 2-3q1-1-1-4l-6-7-4-2-2-3-1-3 1-3h3l17-1q15-1 18 1l8 4 8 3h8q16 0 20 3"/><path fill="#0d131a" d="M133 93l1 1q-8 3-16 9-16 11-15 25l-1 1q-2-16 12-26 6-5 19-10"/><path fill="#0d131a" d="M95 117v-1q1-1 2 1l6 12h-2l-3-6-2-4-1 4v4l-2-3 2-7M137 118l2-2 2 2 3 4 3 3-2 1-2-3-3-4-2 5-1 5h-2l1-5 1-6M162 81l4-8q2-5 1-7h3q-1 7-5 13l-2 3h-3q-8 1-18-3l-10-4 2-1q11 5 20 6 7 2 8 1"/><path fill="#0d131a" d="M138 71l1 1 1 6-2-1-1-3 1-3M154 69h1v-1 9l-4 4-2-1 4-4q2-3 1-7"/><path fill="#0d131a" d="M172 65h2q1-1-3-4l-9-4-16-5h-18q-14 1-21 4l-7 5-4 6-1 2v2l-3 4-1 3 1 2 2 2 14 1 14-2 4-3 5-3 4-4 16-4 21-2m0-6q6 5 5 7l-1 1h-4l-21 2-15 4-3 3-5 5-3 2-16 1H93l-4-4-2 11q0 5 3 8l2 1 8 7q4 4 4 6l-7 6-1-1 4-3 2-2q0-2-5-6l-7-6-2-1q-5-4-2-15 1-8 7-14l1-3 1-4q1-3 4-5l7-5q6-4 21-5h20l14 5 11 5M332 70l2-1q6 19 0 41-4 12-12 27l-1 1q-3 7-15 10-9 3-20 4-7 1-11-2l-9-9-2-3q-5-7-5-12l2-12 8-15 8-10 4-8 2-8 2 2-2 6q-2 7-5 10l-6 9q-5 7-7 13l-3 12q-1 6 4 12l1 2 8 9q4 3 11 2 10-1 19-4 11-4 14-9l1-2q7-12 11-26 5-21 1-39"/><path fill="#0d131a" d="M290 97l4-11 3-9h2l-2 7-4 11-11 24q-7 15-7 19v11l-1-1-1-2v-9q0-4 6-17l11-23"/><path fill="#0d131a" d="M331 20l-7-8-8-8q-4-2-9-1-4 0-8 3l-5 6 3 3-4-2q-4-1-10 1-7 2-10 6-4 4-6 9l-2 6q-1 4 1 9l2 3 2-7q2-1 1 4l-1 9q0 5 2 7 2 4 9 10t9 6l24-2q13-1 17-5 4-2 7-7l4-8 3-7 4-10v-6q-3-5-8-8-6-3-8-2v2q0 2-2-3m-5-10l6 9q4-1 10 2t9 7q2 5 0 11l-4 9-2 4-2 5-4 8q-2 4-6 7-6 4-21 5-12 2-21 1-5 0-11-6-6-4-10-9l-2-6-1-8-3-4q-2-3-2-7l2-9 7-12q4-4 9-5l12-1 6-7q3-3 7-4h7l6 2 8 8"/></svg>