<svg xmlns="http://www.w3.org/2000/svg" version="1" width="372" height="390" viewBox="0.0 -0.55 372.0 390.4"><path fill="#dbd5ca" d="M116 375l-2-15q8-3 11-14l2-14 62-13q2 13 11 20l8 4 3 11-4 8-8 14q-36 11-58 12h-12l-3-1-10-12"/><path fill="#b3aea6" d="M199 377l-4-9-3-6q-3-1-6-5l-6-9-15-3q-9-2-14-5l38-21q2 13 11 20l8 4 3 11-4 8-8 15"/><path fill="#dbd5ca" d="M327 317l2 11-9 8-11 11-16 4-13 4-36-11 2-10 11-9 50-15q4 3 13 5l7 2"/><path fill="#b3aea6" d="M327 317l2 11-20 19-1-7-1-4-19-20 19-6q4 3 13 5l7 2"/><path fill="#dbd5ca" d="M313 278l4 7 4 9-7 9q-6 8-10 10l-15 8q-13 7-17 7l-12-3q-6-1-8-3l-5-4-2-2 44-40 24 2"/><path fill="#b3aea6" d="M321 294q-1 4-8 11-10 10-28 18l3-6 1-5-5-10-9-16 38-8 4 7 4 9"/><path fill="#dbd5ca" d="M97 238v2l1 4q0 12 5 34l5 19v8l-5 8q-6 9-9 11l-18 9-19 9q-8 2-26-6l-12-6q-6-3-7-5l-6-15q-5-13-5-18 6-4 19-29l13-25 7-5 57 5"/><path fill="#b3aea6" d="M62 324v1-1M98 244q0 12 5 34l5 19v8l-5 8q-6 9-9 11l-18 9-19 9 2-9 2-8-20-20q2-3 6-24l4-21 17-3-21-24 50 5v2l1 4"/><path fill="#dbd5ca" d="M97 212l6 12-4 6-4 8q-1 2-6 4l-4 3-23 1-18-2-6-21 10-9 49-2"/><path fill="#b3aea6" d="M97 212l6 12-4 6-4 8q-1 2-6 4l-4 3-23 1 3-10 12-2-21-21 41-1"/><path fill="#dbd5ca" d="M104 182l5 7-3 18-13 6q-14 6-19 5l-17-3-12-2-2-10q-3-9-2-10l6-6 7-5h50"/><path fill="#b3aea6" d="M109 189l-3 18-29 11-3-9-2-10q-3-11-5-13l37-4 5 7"/><path fill="#dbd5ca" d="M48 177l-1-12q0-12 2-16 1-4 12-11 9-7 11-7l47 3 1 34-1 2-3 5-16 9-18 7q-4 1-19-6l-15-8"/><path fill="#b3aea6" d="M120 168l-1 2-3 5-14 8-19 8q4-9 4-20l-3-19-3-11 38-7 1 34"/><path fill="#db4f03" d="M85 29l6-17 4-9q2-4 15 0 12 3 16 8 3 2 9 35 7 35 11 45l-31 50q-2 3-16 3t-19-2q-1-3-12-15l-11-12V90q2-23 4-28 14-9 24-33"/><path fill="#b94100" d="M111 66q10-24 16-54l9 37q6 33 10 42l-29 51-13 1H81l-11-13-13-14q-2-3 4 0l15 7q26 12 36 9l-10-46 9-20"/><path fill="#db4f03" d="M264 61l2 32-15-8-6-33 4-2h6q2 0 5 4l4 7"/><path fill="#b94100" d="M251 85l-3-19q4-7 7-17v1q2 0 5 4l4 7 2 32-15-8"/><path fill="#dbd5ca" d="M205 25l15 2q4 2 23 20 11 34 13 36l10 9 13 9 18 110-128 45-25-15 8-15q1-3-1-11l-3-8-12-13q-13-15-15-22l-3-17-1-15 1-16 20-28 15-7 5-20 7-21 12-12 13-10 15-1"/><path fill="#b3aea6" d="M221 31l-7-5 6 1q4 2 23 20 11 34 13 36l10 9 13 9 18 110-104 37 28-47 8-15 41-54-26-33-10-52-13-16M138 96l15-7-4 12-32 25 21-30"/><path fill="#db4f03" d="M215 178l-12-7-1-22 67-15 1 10-4 24-4 6-7 7q-3 2-13 3l-13 2-14-8"/><path fill="#dbd5ca" d="M129 251l10-7 10-5 9 4 8 6 30 60-22 28-36 3-12-8-7-9-8-11-1-10v-10l9-20 10-21"/><path fill="#b3aea6" d="M149 239l9 4 8 6 30 60-8 12-12 15-3-13q-3-6-4-5 2-15-3-38-6-25-17-41"/><path fill="#db4f03" d="M361 83q9 34 8 37l-7 23-6 17-19 9-57-3-5-12-6-14v-7l1-4 4-15q5-16 8-20t-3-27q-4-20-7-26-2-3-2-7l1-4 13-19 2-1 6-3q10-4 16 0l23 17q16 12 19 18l11 41"/><path fill="#b94100" d="M350 42l11 41q9 34 8 37l-7 23-6 17-19 9-20-1-10-23-6-15 26-33-21-59 1-11q1-13-1-21l2 1 23 17q16 12 19 18"/><path fill="#dbd5ca" d="M337 155q2 1 1 8l-1 7-54 3-2-2q-3-1-3-3-1-2 9-14t12-12q2-1 19 5l19 8"/><path fill="#b3aea6" d="M337 155q2 1 1 8l-1 7-23 1q-4-1-10-6l-6-4v-10l1-9q2-1 19 5l19 8"/><path fill="#dbd5ca" d="M340 174l3 11-4 6-5 7-53-9-3-6 3-5 3-7 19-4q18-3 21-2l10 4q6 2 6 5"/><path fill="#b3aea6" d="M334 169q6 3 6 5l3 11-4 6-5 7-9-1q-7 0-4-1 4-2 6-9l2-7-5-15 10 4"/><path fill="#dbd5ca" d="M337 226l-37-35q2-2 9-4l10-2 8 5q6 5 8 11l4 12 1 6-3 7"/><path fill="#b3aea6" d="M340 219l-3 7-13-13q2-4 2-12 0-7-2-12l9 8q4 9 7 22"/><path fill="#dbd5ca" d="M337 234v9l-9 19-3 6q-4 7-8 9-13 2-38 19l-27 19q-4 2-15 3-11 2-20 1-7-1-23-12-12-8-19-15-4-4-7-25l-3-26q-1-5 15-19 13-14 21-17 4-3 14-4l18-2q9-1 30-7l27-7 5 3 13 8q20 13 27 26 2 2 2 12"/><path fill="#b3aea6" d="M330 214q7 7 7 11v18l-9 19-3 6q-4 7-8 9-13 2-38 19l-27 19q-4 2-15 3-11 2-20 1l18-14q10-9 11-12l3-17 2-13-3-15-3-16 31-7 32-4 8-8 7-5 7 6"/><path fill="#f19963" d="M202 74l4 1 2 4-2 4-4 2-4-2-1-4 1-4 4-1M192 62q0 2-2 3l-4 2-4-2-1-3 1-4 4-2 4 2q2 1 2 4M223 61l-1 4-4 1-4-1-2-4 2-4q1-2 4-2l4 2 1 4M225 79l-1 3-4 2q-3 0-4-2-2-1-2-3 0-3 2-4 1-2 4-2l4 2 1 4M228 95l-1 4-4 1-4-1-2-4 2-4 4-2 4 2 1 4M189 78l-2 4-4 1-4-1-1-4 1-4 4-2q3 0 4 2l2 4M188 95l-2 4-4 1-4-1-1-4 1-4 4-2q3 0 4 2l2 4"/><path fill="#db4f03" d="M151 228l2-5-1-5-1-5-2-5 2 1 2 1 5 1 2 3 3 3 9 11-3 5-3 6v10l-14-10-4 1-3 1 4-8 2-5"/><path fill="#0d131a" d="M114 375l-1-8q-1-7 1-8l3-2 4-4q6-7 4-21h3v3l-2 14q-4 8-10 12l-1 1 2 12 10 12q7 2 24 0 22-2 47-10l7-13 5-9-1-5-2-5-10-5q-7-7-9-19l2-1q2 12 9 18l10 5 2 5 1 7-4 11-6 10-3 3-5 2q-32 9-53 10l-12-1-4-1q-10-10-11-13"/><path fill="#0d131a" d="M116 362l-1-2 1 1q3 1 11 10h19q22-2 45-10l9-8 6-8 2-1v2l-6 8-10 9q-24 8-47 10h-19q-10-9-10-11"/><path fill="#0d131a" d="M175 336h2q0 3 5 13 6 11 10 12l4 6 3 9h-1l-4-8-2-5q-5-1-11-13-6-10-6-14M143 340l1 1v5l-3 10q-6 14-14 16v13l-1 2v-3l-1-8 1-5q8-3 13-15 4-9 4-15v-1M329 317l1 6-1 7-11 10-9 9-28 7-4-1-16-4-17-6v-6l1-5 7-5 5-4 1 1-11 9-1 4v4l17 5 17 5 15-3 13-4 11-9 9-9-1-6-1-4-8-2q-8-2-12-5l1-1 13 4 9 3"/><path fill="#0d131a" d="M326 319l-1 1q-6 3-12 10l-4 6-31 7q-29-6-32-8l-1-1h2q2-1 17 3l14 4 29-7q10-13 16-14l3-1"/><path fill="#0d131a" d="M307 335h2v11l-1 2v-1l-1-12M277 342h2l1 7 1 5-1 1-1-1q-2-5-2-12M312 278h2l5 8 3 8-7 10-9 9-7 4-16 9-11 3-13-2-9-3-4-4-1-3h2l2 2 3 2 9 3 11 2q3 1 12-4l14-7 5-4q4-1 10-8t6-10l-2-5-5-10"/><path fill="#0d131a" d="M307 296v14h-2v-10l-1-8-5-4-3-3 2-1 4 3q4 5 5 9"/><path fill="#0d131a" d="M304 291q6-2 11 0l4 2v2l-5-3q-5-2-8 0h-2v-1M96 244v-4l-1-2 1-2 2 2 1 6 5 28 5 24v9l-5 9q-6 9-9 11l-20 10-18 8q-8 2-26-6l-13-6-7-5-6-16-5-15v-3l1-3q2 0 16-25l15-26 5-4 3-2 1 2-7 5-13 25Q8 288 2 292l5 18 7 15q2 3 18 10 17 8 24 5 32-13 37-17l9-10 5-8v-8q-11-47-11-53"/><path fill="#0d131a" d="M88 254l4-4 5-8 1 4-4 6-5 4q-35 6-38 5-3 0-10-10l-8-12v-1h1l8 11 9 9 19-2 18-2M2 294v-3l11 12 6 7v1h-1l-8-7-8-10"/><path fill="#0d131a" d="M41 305l20 18v8l-3 9-2 1 2-7 1-5 1-3-1-2-9-9-10-8q-1-1-10 1l-10 3-4 8-3 7-1-2 3-8 3-5q1-3 12-5l11-1"/><path fill="#0d131a" d="M78 319q-13 6-17 6h-1l1-1 16-7 18-7 7-7 6-7h1l-1 2-6 7-6 7-18 7M50 259h2l-4 24q-3 18-6 23l-2 1v-2q3-7 6-24l4-22"/><path fill="#0d131a" d="M87 269l1-9 1-5 1-1v24q0 22 6 32v6l-1 6v3q-1 1-1-1v-7-6q-7-13-7-42M96 212h2l3 6 3 5-4 8-5 8-5 4-5 3-23 1-8-1q-9-2-10-4-2-1-4-10-3-9-2-10l4-5 6-3h1v1l-9 8 2 10 3 8 18 4 22-1 5-4 4-2 8-14-6-12"/><path fill="#0d131a" d="M102 223h1l-2 2-20 10-16 2-24-12-2-2h1l12 6 13 5 15-1 22-10"/><path fill="#0d131a" d="M82 234l2 8v3l-1-1-2-5-1-5 1-1 1 1M62 243l1-5 1-3 1 1q2 0 1 1l-3 8h-1v-2M54 181h2v1l-12 8-2 3 1 3 1 8 3 7 12 3 16 3q3 1 16-5 13-4 14-6l2-9 1-8-5-6 1-1 3 3 4 3-2 10-2 10-14 7q-14 5-19 4l-15-2-10-2-3-1-3-4-2-9-2-10 7-5 8-5"/><path fill="#0d131a" d="M92 199l16-10h1l-2 2-16 10-16 9q-1 1-15-7l-15-8-3-3h1l15 8 17 8 17-9"/><path fill="#0d131a" d="M75 217l-1-4v-3l1-1 1 1 1 3v5q-1 1-2-1M71 131l1 1-11 7q-10 7-11 10l-1 17v10l16 8q15 6 18 5 4 0 17-7l15-8q2-1 2-3l1-4 1-1v7l-2 3-16 9-17 7q-5 1-21-6l-16-8-1-14q0-11 2-15 1-4 11-12l12-6"/><path fill="#0d131a" d="M66 162q-15-10-17-13v-1l2 1 17 12q15 10 19 9l13-11q12-11 13-17h2q-2 8-13 19t-15 12q-5 1-21-11"/><path fill="#0d131a" d="M86 171h2l-2 10-2 9-1 1v-2l1-9 2-9M128 10q2 2 4 11l4 22 5 27 6 21-2 1q-3-7-6-22l-6-27-4-20q-2-10-4-12-2-3-11-6-8-3-14-2l-4 1-3 7q-5 17-10 27-9 17-21 25l-3 22-1 26v3l3 4 5 5 9 11 6 7q5 2 20 1 15 0 16-2v2q-2 3-20 3l-18-1-6-8-9-11-8-9q-2-3 0-29 2-25 4-26 13-9 21-25l10-26 1-5 1-3q1-2 6-2 7 0 16 3 10 3 13 7"/><path fill="#0d131a" d="M125 16q1-4 2-3l-1 7-10 34q-9 29-14 33l-3 2-7 3q-11 2-19-4l-11-8-2-1-1-1h1l6 2 8 6q8 8 27 0 6-6 24-70"/><path fill="#0d131a" d="M58 75l11-20 2-2q3-2 1 1-3 3-7 12l-5 11q0 2-1 0l-1-2M103 84q1-2 0 0l5 25 5 22 4 7-1 3-5-9-10-45 2-3"/><path fill="#0d131a" d="M106 81q-2 2 1-3l14 7q11 7 15 13l-1 1q-4-5-16-13-11-7-13-5M66 119l-3-2q1-1 4 1l25 11 20 4h1v1q-13 0-24-4-10-3-23-11M259 55l-4-4h-4l-6 2v-2l5-2 5-1 6 6 5 7 1 32h-2l-2-31-4-7"/><path fill="#0d131a" d="M253 50h2l-2 7q-2 5-4 6l-1-1q2-1 3-6l2-6"/><path fill="#0d131a" d="M244 46l2 4 5 17 5 16 11 8 12 8-1 3-12-9-11-9q-2-2-13-36l-13-12-9-8-15-1h-15l-12 10-12 11-5 15-7 25-1 2q-13 5-14 7-2 0-11 14l-9 13-1 16 2 19 2 13q3 7 15 21l12 13v1q5 10 5 16l-1 3-8 16h-3l8-15 1-2v-2l-1-7-3-8-13-14q-12-14-14-21l-3-17-1-16-1-8 2-9 10-15 10-14 7-3 7-2 7-23 6-19 12-12 14-10 14-1 16 1 10 8 12 11 2 2"/><path fill="#0d131a" d="M221 32l-2-3 3 3 11 12 2 3 1 5 5 24 5 23 8 11 15 19v3l-22-27-4-6-10-51-12-16M154 83q3-6 2-1l-3 12-3 8-15 12-16 12v-1q2-4 29-25l3-11 3-6"/><path fill="#0d131a" d="M202 149h-1l-40-3-21-8q-18-8-22-12l1-2q0-3 0 0 0 2 21 11 19 8 23 8l40 4 66-14v2l-31 7-34 7h-2"/><path fill="#0d131a" d="M163 145l2 12 4 18 3 10 1 5-6 12-7 10h-4l-9-4-2-6 6 5q6 4 7 3 2 0 7-9l5-11-1-6-3-10-6-29 1-1 2 1"/><path fill="#0d131a" d="M158 213v-2l2 2 14 15-2 2-14-17M202 170l-1-11v-11l1-1 1 3v11l1 9 11 7 13 8 13-2q11-1 13-3l6-6 5-6 5-27 1 3-4 24q0 2-5 8l-7 7-13 3-13 2-15-8q-11-7-12-10"/><path fill="#0d131a" d="M254 183l1-1q0-1 0 0l8 10-3 1-3-6-3-4M221 199l3-6 4-7 2-1v2l-3 7-4 6-2-1M151 238q2-1 7 3l7 7 2 3h-1l-8-6-9-5-9 5-10 7-10 20-9 20v10l1 10 7 9 8 10 6 5 6 3 17-1 17-2 12-13 10-14q0-2 1-1l-1 3q-1 4-10 15l-10 12-18 3-19 1-8-5-5-4q-15-18-15-21l-1-10v-11l9-19 10-21q2-4 9-8t14-5"/><path fill="#0d131a" d="M138 324l-12-4-12-6-2-2h1l13 6 12 4 16-2 16-3 7-5 11-10 1 2-9 8q-8 7-10 7l-32 5"/><path fill="#0d131a" d="M136 323q-1-2 1-1l2 2 1 6v10l-1 1v-1l-1-9q0-7-2-8M169 318l2-1 4 9 1 7-1 2-2-7-4-10M351 42q4 9 12 40 9 33 7 38l-7 22-6 19q-1 2-10 6l-10 3-1-2 19-9 6-18 6-21 1-1q0-7-8-38-8-29-12-38-2-5-14-16l-21-15-6-4q-5-3-14 0l-8 4-13 18-1 6 2 4 6 20 5 28v2q1 1-1 3l-7 21-5 16v3l-1 5 1 2 4 11 4 11 1 2h-1q-2-1-6-12l-5-12v-6l1-5 5-17 7-21q1-2-3-24-5-21-8-25l-1-8 1-6 13-18 10-5q10-3 13-1l8 6q12 8 22 17 13 10 15 15"/><path fill="#0d131a" d="M307 7l1 1v18l-1 14-12-11q-12-12-13-15l2-2q1 4 10 14l11 11 1-8 1-14V7"/><path fill="#0d131a" d="M328 96l-13 17-13 18h-15l-17-1v-1h30q2 0 13-15l12-18q0-4-10-30l-10-28h1l11 28 11 30"/><path fill="#0d131a" d="M370 119l-2 1-41-23-1-1 1-1 22 11q19 9 21 13M300 131l1-1h1l7 14-1 1q-3-2-5-7l-3-7"/><path fill="#0d131a" d="M339 154v8l-2 8h-2 1l1-11-1-3-18-7-19-6-11 12q-9 10-9 13l2 2 2 2v2l-3-2q-3-2-3-4v-3l9-12 6-6 7-6 21 6 19 7"/><path fill="#0d131a" d="M297 153l1-8 1-3 1 2-1 7v9l7 6-3 1-3-3-3-3v-8"/><path fill="#0d131a" d="M278 168l19-8 1 1-19 8-1-1M324 164l5 2 9 3q4 2 4 5l1 6 1 5-4 7q-4 5-6 5l-1-1 5-5 3-6-1-5-1-6q0-2-11-6l-5-2q-2-1-19 2l-19 4-3 6-2 5 2 5h-1q-4-3-4-5l2-7 5-6 19-4q18-3 21-2"/><path fill="#0d131a" d="M326 166l1 1q-1 3 3 11l5-1q4-2 4-4l1 1v2l-5 3-5 1-4-7-3-7h3"/><path fill="#0d131a" d="M329 180l1-1h1q-1 6-4 10h-2l2-4 2-5"/><path fill="#0d131a" d="M334 201l-8-10-8-5-9 2-8 3-1-1q2-2 9-4l10-2q4 1 9 5 6 5 8 11 3 6 4 14l2 8-5 4-1-2 3-4-1-7-4-12"/><path fill="#0d131a" d="M336 229l-2-7q-7-12-25-25l-13-8q-5-3-6-2l-25 6-32 7-11 2-11 1-10 3q-6 3-19 15t-15 17v3l1 9 3 23q2 15 5 18 7 7 19 15 15 11 23 11h19q11-1 14-3l7-5 29-19q19-12 30-15 3-1 7-7l3-6 9-18v-15m-12-22l8 9q6 7 6 9v9l1 8-1 3-2 4-7 14-4 7q-5 7-8 8-10 3-29 14-14 8-28 19l-7 5-17 4h-21q-8-1-24-13-10-7-18-15-3-3-5-16l-3-26-1-9q-1-5 13-20l20-17q6-3 25-5l11-1 32-8 26-6q2 0 16 10l17 13"/><path fill="#0d131a" d="M250 248l2 16q-5 25-4 26v2l-1 1q-22 25-30 26l-2-1q-2-1 2-1 4-1 14-10l14-14 5-30-2-14-4-15q0-2-19-14-17-11-21-12l-2-2h3q6 1 23 12t18 14q2 3 4 16M337 243v1l-17 9q-13 7-12 8l7 1h12l1 2h-6l-13-1-4-1v-2l16-10 16-7M336 224l1 1-1 1-15-2-14-2h-1l1-1q0-2 7-7l8-7 2 1v1q-16 11-15 12l13 2 14 1"/><path fill="#0d131a" d="M308 221v2l-35 4-15 3-12 4h-1l-2-2q-2-3 1-2 2 1 13-2l13-3 38-4M250 263v-2q1-2 1 0l7 10 7 10h1l-1 2-9 6-12 6 2-3 9-5 7-5q1-1-5-10l-7-9"/><path fill="#0d131a" d="M263 281q0-2 1-1t20-9l21-11h2v2l-44 21v-2M198 79l1 3 3 1 3-1q2-1 2-3l-2-4-3-1-3 1-1 4m-2 0q0-3 2-4 1-2 4-2t5 2q2 1 2 4t-2 5q-2 2-5 2t-4-2q-2-2-2-5M189 58l-3-1-3 1-2 4 2 3 3 1 3-1 1-3-1-4m-3-3q3 0 5 2l1 5-1 4q-2 2-5 2t-5-2l-1-4 1-5q2-2 5-2M221 58q-1-2-3-2t-3 2l-1 3 1 3 3 1 3-1q2-1 2-3t-2-3m-3-4l4 2q2 2 2 5t-2 4l-4 2q-3 0-5-2-2-1-2-4t2-5q2-2 5-2M220 74l-3 1q-2 1-2 3t2 3q1 2 3 2t3-2l1-3-1-3-3-1m-5 0q2-2 5-2l4 2q2 2 2 5l-2 4-4 2q-3 0-5-2l-2-4q0-3 2-5M226 98l1-4-1-3-3-1-4 1-1 3 1 4 4 1 3-1m1 1l-4 2q-3 0-5-2-2-1-2-4t2-5q2-2 5-2l4 2q2 2 2 5t-2 4M178 78q0 2 2 3l3 1 3-1 1-3-1-3q-1-2-3-2t-3 2q-2 1-2 3m1 4q-2-1-2-4t2-5l4-2q3 0 5 2t2 5q0 3-2 4-2 2-5 2l-4-2M185 98q2-1 2-3l-2-4-3-1-3 1-1 4 1 3 3 1 3-1m4-3q0 3-2 4-2 2-5 2l-4-2q-2-1-2-4t2-5l4-2q3 0 5 2t2 5"/></svg>